<?xml version="1.0" encoding="UTF-8"?>
<svg version="1.1" xmlns="http://www.w3.org/2000/svg" width="2000" height="2000">
<path d="M0 0 C10.12864462 1.12540496 10.12864462 1.12540496 15.21484375 2.92578125 C16.86323242 3.50295898 16.86323242 3.50295898 18.54492188 4.09179688 C19.66447266 4.49462891 20.78402344 4.89746094 21.9375 5.3125 C23.05318359 5.70373047 24.16886719 6.09496094 25.31835938 6.49804688 C31.13891243 8.55416491 36.88883919 10.73310356 42.60766602 13.05541992 C46.69247571 14.66825069 50.84618186 16.07674255 55 17.5 C60.86904441 19.53078707 66.67976173 21.61525134 72.421875 23.984375 C75.89483586 25.3525111 79.41452323 26.5807706 82.9375 27.8125 C94.26533266 31.77408429 105.52143587 35.92790278 116.74829102 40.16674805 C125.07529091 43.30927786 133.44370569 46.32954714 141.8215332 49.33374023 C150.1661476 52.32983 158.49172583 55.37592104 166.8125 58.4375 C176.8143125 62.11733916 186.83377312 65.7412616 196.875 69.3125 C205.98076522 72.55149709 215.05299653 75.85678238 224.09082031 79.28027344 C239.33043036 85.02533359 254.6717996 90.49733275 270 96 C286.89160343 102.06391296 303.75603371 108.19119213 320.578125 114.4453125 C336.34668969 120.3041805 336.34668969 120.3041805 352.19262695 125.94897461 C357.60451043 127.84120849 362.96627873 129.85459636 368.32592773 131.8894043 C372.27256678 133.37904538 376.23702294 134.76310951 380.25 136.0625 C384.13561571 137.32818984 387.87314589 138.75604925 391.625 140.375 C397.48396712 142.88047936 403.45931964 144.86548956 409.51074219 146.84155273 C414.12745913 148.35565301 418.63076747 150.00305475 423.1171875 151.87109375 C427.36887762 153.53605099 431.68554873 155.00664152 436 156.5 C441.86843142 158.53271251 447.67964533 160.61520332 453.421875 162.984375 C457.61069378 164.63451573 461.86878474 166.09027895 466.11865234 167.57397461 C471.70668501 169.52972494 477.26298283 171.56272425 482.8125 173.625 C487.99462409 175.55063492 493.17682689 177.42180557 498.4375 179.125 C502.26027453 180.36937902 505.93341815 181.78354043 509.625 183.375 C514.71437648 185.5513781 519.86861014 187.34455268 525.125 189.0625 C530.58160035 190.8459694 535.94598445 192.70154501 541.25390625 194.89453125 C554.2163788 200.1127101 567.48527678 204.61089765 580.64501953 209.29833984 C592.37701434 213.48138411 604.07109219 217.75982201 615.72412109 222.15795898 C623.00045395 224.90270463 630.30503903 227.56125883 637.625 230.1875 C646.99216241 233.54827583 656.34538361 236.94522107 665.6875 240.375 C666.31317871 240.6046344 666.93885742 240.8342688 667.58349609 241.07086182 C673.32460799 243.178156 679.06489993 245.28767638 684.80419922 247.39990234 C699.59110513 252.84183051 714.39485064 258.23066137 729.23925781 263.51416016 C737.94826301 266.6163875 746.62829768 269.78972744 755.29736328 273.00146484 C761.60816938 275.33309962 767.92693475 277.64314197 774.24401855 279.95770264 C776.19785029 280.67358374 778.1516654 281.38951018 780.10546875 282.10546875 C781.08466782 282.46427124 781.08466782 282.46427124 782.08364868 282.83032227 C786.5947769 284.48375146 791.10433531 286.14141157 795.61328125 287.80078125 C809.00227893 292.72573428 822.41072092 297.58755159 835.85473633 302.36035156 C844.54601412 305.45558707 853.18388076 308.67965568 861.81103516 311.94873047 C867.25596063 314.00246147 872.7135196 315.95802006 878.25 317.75 C882.53494526 319.14035322 886.67627977 320.65357916 890.8125 322.4375 C896.60577688 324.93041211 902.52218634 326.88601087 908.51147461 328.84179688 C913.1279472 330.35580917 917.63100758 332.00315472 922.1171875 333.87109375 C927.1937078 335.8590536 932.36204818 337.59622411 937.51904297 339.36303711 C942.5757591 341.1071613 947.54626682 342.99546921 952.50341797 345.00439453 C956.65533945 346.66012852 960.85793544 348.17157917 965.0625 349.6875 C966.00005127 350.0270874 966.93760254 350.3666748 967.90356445 350.71655273 C976.23587397 353.73194409 984.57605227 356.72554931 992.91503906 359.72241211 C998.8906622 361.8724034 1004.8575237 364.04352027 1010.8125 366.25 C1020.1878162 369.7234709 1029.59463089 373.10901416 1039 376.5 C1052.39383896 381.33011208 1065.77206351 386.19716191 1079.11767578 391.15917969 C1096.52801095 397.6410405 1096.52801095 397.6410405 1114.02124023 403.89404297 C1121.42952012 406.48807231 1128.7848722 409.2227694 1136.14648438 411.94580078 C1153.3017078 418.28360492 1170.48305302 424.54723996 1187.6875 430.75 C1216.54176268 441.15342696 1216.54176268 441.15342696 1227.76953125 445.43359375 C1237.28177795 449.05227644 1246.8718381 452.40702573 1256.51391602 455.66552734 C1262.85828914 457.8306667 1269.0354825 460.23077476 1275.20507812 462.85083008 C1279.11768636 464.45955186 1283.09588374 465.78067253 1287.125 467.0625 C1292.54299681 468.82690239 1297.85496359 470.68002839 1303.1171875 472.87109375 C1308.1937078 474.8590536 1313.36204818 476.59622411 1318.51904297 478.36303711 C1323.5757591 480.1071613 1328.54626682 481.99546921 1333.50341797 484.00439453 C1337.65533945 485.66012852 1341.85793544 487.17157917 1346.0625 488.6875 C1347.00005127 489.0270874 1347.93760254 489.3666748 1348.90356445 489.71655273 C1357.21821888 492.72555487 1365.54029949 495.71403596 1373.86230469 498.70263672 C1381.14318551 501.32080057 1388.40407697 503.98947366 1395.65722656 506.68334961 C1399.892713 508.24881862 1404.14134012 509.73180087 1408.4375 511.125 C1412.27527276 512.3759867 1415.97530442 513.78979216 1419.6875 515.375 C1426.4425646 518.2452521 1433.34171821 520.63414231 1440.26904297 523.04443359 C1455.26886416 528.29289597 1470.22968718 533.65093638 1485.09082031 539.28027344 C1500.33043036 545.02533359 1515.6717996 550.49733275 1531 556 C1547.89160343 562.06391296 1564.75603371 568.19119213 1581.578125 574.4453125 C1592.09941275 578.35418414 1602.61777732 582.25787353 1613.21459961 585.95776367 C1617.72868009 587.53805493 1622.21350728 589.18470031 1626.6875 590.875 C1641.15181144 596.33776845 1655.69754789 601.56620902 1670.30371094 606.63647461 C1674.98916758 608.27092528 1679.60245711 610.00673223 1684.1875 611.90625 C1688.41830206 613.55156191 1692.71095639 615.01437475 1697 616.5 C1707.51829268 620.14329268 1707.51829268 620.14329268 1712 622 C1717.66307105 624.34126966 1723.46768392 626.28124898 1729.25585938 628.28637695 C1735.36651796 630.40977402 1741.42832047 632.63808646 1747.47412109 634.9387207 C1751.37100392 636.41357916 1755.28629791 637.77891772 1759.25 639.0625 C1764.34239011 640.72080886 1769.22888456 642.72641119 1774.15234375 644.828125 C1778.04437292 646.42978309 1781.98877023 647.72977724 1786 649 C1786 649.99 1786 650.98 1786 652 C1785.47792969 652.23074219 1784.95585938 652.46148438 1784.41796875 652.69921875 C1773.45604563 657.55625298 1762.61687322 662.56972125 1751.93554688 668.01611328 C1747.96668905 670.03358263 1743.97870651 672.01305569 1739.99462891 674.00024414 C1736.68034645 675.65496087 1733.37072101 677.31776092 1730.0703125 679 C1722.37974974 682.90631759 1714.61749644 686.54069416 1706.71582031 690 C1699.67748007 693.09989695 1692.81825751 696.50826496 1685.96777344 700 C1682.65389356 701.68407593 1679.32632685 703.34068415 1676 705 C1672.03170403 706.98149312 1668.06491549 708.9657162 1664.10546875 710.96484375 C1656.14024645 714.97931579 1648.12034072 718.85529847 1640.04956055 722.65307617 C1635.16671932 724.95658147 1630.31861005 727.31522664 1625.5 729.75 C1618.21340803 733.43116809 1610.86025421 736.96876814 1603.5 740.5 C1596.30815397 743.9510682 1589.11935231 747.40137772 1582 751 C1574.88064603 754.59862312 1567.69180865 758.04885124 1560.5 761.5 C1549.77641427 766.64530077 1549.77641427 766.64530077 1539.125 771.9375 C1530.99047135 776.04965687 1522.76951863 779.98260463 1514.5567627 783.9352417 C1507.04623821 787.55090135 1499.55243551 791.19231088 1492.11328125 794.953125 C1484.43034917 798.81905898 1476.65905506 802.50408292 1468.90527344 806.22509766 C1462.95502498 809.08423263 1457.01647588 811.95910421 1451.125 814.9375 C1442.99047135 819.04965687 1434.76951863 822.98260463 1426.5567627 826.9352417 C1419.04623821 830.55090135 1411.55243551 834.19231088 1404.11328125 837.953125 C1396.43181294 841.81832243 1388.66204704 845.50274949 1380.90966797 849.22290039 C1374.91588792 852.10283861 1368.93470478 855.00018205 1363 858 C1355.88064603 861.59862312 1348.69180865 865.04885124 1341.5 868.5 C1330.77641427 873.64530077 1330.77641427 873.64530077 1320.125 878.9375 C1311.99047135 883.04965687 1303.76951863 886.98260463 1295.5567627 890.9352417 C1288.04623821 894.55090135 1280.55243551 898.19231088 1273.11328125 901.953125 C1265.43034917 905.81905898 1257.65905506 909.50408292 1249.90527344 913.22509766 C1243.95502498 916.08423263 1238.01647588 918.95910421 1232.125 921.9375 C1223.99047135 926.04965687 1215.76951863 929.98260463 1207.5567627 933.9352417 C1200.04623821 937.55090135 1192.55243551 941.19231088 1185.11328125 944.953125 C1177.43181294 948.81832243 1169.66204704 952.50274949 1161.90966797 956.22290039 C1155.91588792 959.10283861 1149.93470478 962.00018205 1144 965 C1136.88064603 968.59862312 1129.69180865 972.04885124 1122.5 975.5 C1111.77641427 980.64530077 1111.77641427 980.64530077 1101.125 985.9375 C1092.99047135 990.04965687 1084.76951863 993.98260463 1076.5567627 997.9352417 C1069.04623821 1001.55090135 1061.55243551 1005.19231088 1054.11328125 1008.953125 C1046.43034917 1012.81905898 1038.65905506 1016.50408292 1030.90527344 1020.22509766 C1024.95502498 1023.08423263 1019.01647588 1025.95910421 1013.125 1028.9375 C1004.99047135 1033.04965687 996.76951863 1036.98260463 988.5567627 1040.9352417 C981.04623821 1044.55090135 973.55243551 1048.19231088 966.11328125 1051.953125 C958.43181294 1055.81832243 950.66204704 1059.50274949 942.90966797 1063.22290039 C936.91588792 1066.10283861 930.93470478 1069.00018205 925 1072 C917.88064603 1075.59862312 910.69180865 1079.04885124 903.5 1082.5 C892.77641427 1087.64530077 892.77641427 1087.64530077 882.125 1092.9375 C873.99047135 1097.04965687 865.76951863 1100.98260463 857.5567627 1104.9352417 C850.04623821 1108.55090135 842.55243551 1112.19231088 835.11328125 1115.953125 C827.43034917 1119.81905898 819.65905506 1123.50408292 811.90527344 1127.22509766 C805.95502498 1130.08423263 800.01647588 1132.95910421 794.125 1135.9375 C785.99047135 1140.04965687 777.76951863 1143.98260463 769.5567627 1147.9352417 C762.04623821 1151.55090135 754.55243551 1155.19231088 747.11328125 1158.953125 C739.43181294 1162.81832243 731.66204704 1166.50274949 723.90966797 1170.22290039 C717.91588792 1173.10283861 711.93470478 1176.00018205 706 1179 C698.88064603 1182.59862312 691.69180865 1186.04885124 684.5 1189.5 C673.77641427 1194.64530077 673.77641427 1194.64530077 663.125 1199.9375 C654.99047135 1204.04965687 646.76951863 1207.98260463 638.5567627 1211.9352417 C631.04623821 1215.55090135 623.55243551 1219.19231088 616.11328125 1222.953125 C608.43034917 1226.81905898 600.65905506 1230.50408292 592.90527344 1234.22509766 C586.95502498 1237.08423263 581.01647588 1239.95910421 575.125 1242.9375 C566.99047135 1247.04965687 558.76951863 1250.98260463 550.5567627 1254.9352417 C543.04623821 1258.55090135 535.55243551 1262.19231088 528.11328125 1265.953125 C520.43181294 1269.81832243 512.66204704 1273.50274949 504.90966797 1277.22290039 C498.91588792 1280.10283861 492.93470478 1283.00018205 487 1286 C479.88064603 1289.59862312 472.69180865 1293.04885124 465.5 1296.5 C454.77641427 1301.64530077 454.77641427 1301.64530077 444.125 1306.9375 C435.99047135 1311.04965687 427.76951863 1314.98260463 419.5567627 1318.9352417 C412.04623821 1322.55090135 404.55243551 1326.19231088 397.11328125 1329.953125 C389.43034917 1333.81905898 381.65905506 1337.50408292 373.90527344 1341.22509766 C367.95502498 1344.08423263 362.01647588 1346.95910421 356.125 1349.9375 C347.99047135 1354.04965687 339.76951863 1357.98260463 331.5567627 1361.9352417 C324.04623821 1365.55090135 316.55243551 1369.19231088 309.11328125 1372.953125 C301.43181294 1376.81832243 293.66204704 1380.50274949 285.90966797 1384.22290039 C279.91588792 1387.10283861 273.93470478 1390.00018205 268 1393 C260.88064603 1396.59862312 253.69180865 1400.04885124 246.5 1403.5 C238.76311089 1407.21288694 231.04049497 1410.94283771 223.3840332 1414.81884766 C218.84393255 1417.10531518 214.27215503 1419.32365231 209.69140625 1421.52734375 C209.03730774 1421.84213181 208.38320923 1422.15691986 207.70928955 1422.48124695 C204.39461514 1424.07556378 201.07837549 1425.6665327 197.76025391 1427.25366211 C196.53155016 1427.84353442 195.30287072 1428.43345735 194.07421875 1429.0234375 C192.97682373 1429.54856934 191.87942871 1430.07370117 190.7487793 1430.61474609 C187.89022326 1431.98586668 187.89022326 1431.98586668 185 1434 C184.69760724 1437.09376412 184.5937066 1439.98840464 184.61523914 1443.08552742 C184.61008924 1444.04345461 184.60493933 1445.00138181 184.59963337 1445.9883371 C184.58589361 1449.23503786 184.5937327 1452.48134161 184.60127258 1455.72805786 C184.59583945 1458.06442431 184.58909056 1460.40078801 184.58113068 1462.73714721 C184.5649086 1468.50829003 184.56270665 1474.27932227 184.56624526 1480.05048404 C184.5696943 1486.95945312 184.55578544 1493.86835853 184.54117843 1500.77730912 C184.51470669 1513.5289891 184.50221461 1526.28064735 184.49761391 1539.03235245 C184.49301141 1551.66317289 184.48224203 1564.29396312 184.46318626 1576.92477036 C184.46200614 1577.70930515 184.46082601 1578.49383995 184.45961012 1579.30214853 C184.45358493 1583.28619617 184.44744908 1587.27024364 184.44127061 1591.25429104 C184.39767632 1619.49357536 184.36798474 1647.73285895 184.34643555 1675.97216797 C184.32546547 1703.41098109 184.29821894 1730.84977622 184.26245117 1758.28857422 C184.26135169 1759.13394681 184.26025222 1759.97931941 184.25911942 1760.85030935 C184.24807135 1769.33967462 184.23689542 1777.82903972 184.2256258 1786.3184047 C184.20266998 1803.6131376 184.1805677 1820.90787155 184.15898132 1838.2026062 C184.1579877 1838.99783835 184.15699409 1839.7930705 184.15597036 1840.6124006 C184.12555183 1864.99347898 184.09875202 1889.37455947 184.07551575 1913.75564575 C184.07485447 1914.44802575 184.0741932 1915.14040575 184.07351188 1915.85376697 C184.04677802 1943.90250933 184.02387004 1971.95125509 184 2000 C123.28 2000 62.56 2000 0 2000 C0 1340 0 680 0 0 Z M184 240 C184 576.6 184 913.2 184 1260 C189.84615152 1258.05128283 194.81097555 1256.28991111 200.23828125 1253.63671875 C200.88516403 1253.32225296 201.53204681 1253.00778717 202.1985321 1252.68379211 C204.23909933 1251.69021026 206.27579835 1250.68897745 208.3125 1249.6875 C209.66316895 1249.02879938 211.01407916 1248.37059322 212.36523438 1247.71289062 C218.3694987 1244.78551104 224.35755696 1241.82762009 230.328125 1238.83203125 C235.66724225 1236.15507524 241.04316793 1233.5635116 246.4375 1231 C255.42922308 1226.71335256 264.40634231 1222.39715066 273.375 1218.0625 C310.08908559 1200.32441129 310.08908559 1200.32441129 321.0625 1195.25 C329.99276127 1191.10595741 338.76179886 1186.64794529 347.546875 1182.20703125 C366.99332295 1172.40703801 386.68664853 1163.09130504 406.3359375 1153.70703125 C415.51453711 1149.32262519 424.68215219 1144.91529975 433.8515625 1140.51171875 C436.9632597 1139.01764081 440.07531475 1137.52431103 443.1875 1136.03125 C448.36955247 1133.545141 453.55095411 1131.05768019 458.73193359 1128.56933594 C460.98729879 1127.48630236 463.24284378 1126.40364314 465.49853516 1125.32128906 C482.50495428 1117.1642504 482.50495428 1117.1642504 499.40234375 1108.78515625 C507.17760862 1104.89865427 515.05650872 1101.21809571 522.90283203 1097.47802734 C531.17612244 1093.52985612 539.43705219 1089.55581583 547.69970703 1085.58544922 C549.96867851 1084.49544324 552.23789812 1083.40595367 554.50732422 1082.31689453 C571.5054511 1074.16402559 571.5054511 1074.16402559 588.39453125 1065.7890625 C596.20689075 1061.88401926 604.12171866 1058.1823578 612.00634766 1054.42626953 C616.71414896 1052.18332586 621.41995284 1049.93621453 626.125 1047.6875 C627.05175537 1047.24470703 627.97851074 1046.80191406 628.93334961 1046.34570312 C634.41705054 1043.72280144 639.89471859 1041.0876577 645.3671875 1038.44140625 C645.9954393 1038.13761551 646.6236911 1037.83382477 647.27098083 1037.52082825 C649.81351632 1036.29124291 652.35600738 1035.06156592 654.89834595 1033.83157349 C661.68215648 1030.5505011 668.47015989 1027.28264049 675.3125 1024.125 C684.1620436 1020.02874954 692.84511946 1015.60582618 701.546875 1011.20703125 C720.99332295 1001.40703801 740.68664853 992.09130504 760.3359375 982.70703125 C769.51749282 978.32121332 778.68801043 973.91236864 787.86035156 969.50732422 C790.94554482 968.02614357 794.03127276 966.54608309 797.1171875 965.06640625 C799.16148424 964.08599153 801.205755 963.1055226 803.25 962.125 C804.26352539 961.6388623 805.27705078 961.15272461 806.32128906 960.65185547 C812.04899651 957.9025917 817.77274575 955.14531272 823.4921875 952.37890625 C824.12332962 952.07367035 824.75447174 951.76843445 825.40473938 951.45394897 C826.03567001 951.14881378 826.66660065 950.84367859 827.31665039 950.52929688 C827.94652863 950.22467529 828.57640686 949.92005371 829.22537231 949.60620117 C830.48798919 948.99557225 831.75058292 948.38489546 833.01315308 947.77416992 C839.75874029 944.5123391 846.50926597 941.26524191 853.3125 938.125 C862.2944591 933.96745745 871.11597362 929.48941424 879.93359375 924.99609375 C886.87922208 921.47112487 893.8641987 918.12424559 901 915 C907.15349575 912.30423231 913.19499628 909.468145 919.18310547 906.42407227 C927.48330901 902.2176843 935.88272707 898.21440892 944.27075195 894.18701172 C950.29822279 891.28813811 956.30824027 888.36079772 962.28515625 885.359375 C967.76410375 882.60959099 973.27178989 879.93498681 978.8125 877.3125 C990.0797596 871.9527272 1001.28994579 866.47809967 1012.5 861 C1026.10527233 854.35278515 1039.72569389 847.74329445 1053.39941406 841.23779297 C1070.43023102 833.13168689 1087.39288271 824.88976149 1104.340271 816.6111145 C1116.99935193 810.42818331 1129.67744798 804.29048149 1142.39941406 798.23779297 C1158.520612 790.56463548 1174.58272635 782.77393603 1190.625 774.9375 C1204.20290412 768.30493177 1217.79344605 761.70430954 1231.44140625 755.21679688 C1236.00542652 753.04627426 1240.56532859 750.86714035 1245.125 748.6875 C1246.05973145 748.24075928 1246.99446289 747.79401855 1247.95751953 747.33374023 C1256.43460897 743.27826746 1264.89687202 739.19225146 1273.35726929 735.10211182 C1281.70641948 731.06584701 1290.06635914 727.0530039 1298.4375 723.0625 C1304.31795906 720.25809629 1310.18254932 717.43299361 1316 714.5 C1321.60994266 711.6719017 1327.26475615 708.94974903 1332.9375 706.25 C1344.3042269 700.83920451 1355.62228084 695.32999788 1366.9375 689.8125 C1367.83081024 689.37691772 1368.72412048 688.94133545 1369.64450073 688.49255371 C1374.76354846 685.99615784 1379.88200921 683.49856199 1385 681 C1385 680.34 1385 679.68 1385 679 C1384.44650879 678.80889648 1383.89301758 678.61779297 1383.32275391 678.42089844 C1380.75597201 677.53307502 1378.19048878 676.64155284 1375.625 675.75 C1374.75488281 675.44964844 1373.88476562 675.14929688 1372.98828125 674.83984375 C1367.75827785 673.01902775 1362.60664605 671.06680068 1357.47460938 668.98681641 C1353.33003729 667.33405789 1349.13460519 665.82573141 1344.9375 664.3125 C1343.99994873 663.9729126 1343.06239746 663.6333252 1342.09643555 663.28344727 C1335.89949513 661.04082767 1329.69774523 658.81158203 1323.49609375 656.58203125 C1310.05548964 651.75001038 1296.62908835 646.88353465 1283.26660156 641.83886719 C1274.67651444 638.59707385 1266.04226369 635.48437612 1257.40063477 632.3828125 C1249.66143101 629.60341525 1241.93947292 626.78105407 1234.2265625 623.9296875 C1227.7181158 621.52400128 1221.20254956 619.13773181 1214.6875 616.75 C1213.39493603 616.27621023 1212.10237419 615.80241462 1210.80981445 615.32861328 C1208.18231308 614.36550145 1205.55478642 613.40245867 1202.92724609 612.43945312 C1197.85951368 610.58205248 1192.79205078 608.72391709 1187.72460938 606.86572266 C1185.2376723 605.95382399 1182.750693 605.04204049 1180.26367188 604.13037109 C1174.59072341 602.05073388 1168.91804775 599.97037516 1163.24676514 597.88619995 C1160.06052824 596.71529658 1156.87406813 595.54500161 1153.6875 594.375 C1153.06268738 594.14556702 1152.43787476 593.91613403 1151.79412842 593.67974854 C1142.23349473 590.17049412 1132.65475693 586.71424306 1123.06713867 583.27954102 C1114.83870011 580.32266359 1106.65341339 577.25739605 1098.47314453 574.17016602 C1091.99026386 571.72926729 1085.48313332 569.37675492 1078.94287109 567.09472656 C1074.31399346 565.47579822 1069.71331088 563.79296487 1065.125 562.0625 C1064.47088135 561.81588623 1063.8167627 561.56927246 1063.14282227 561.31518555 C1061.79361135 560.80633747 1060.44440903 560.29746664 1059.09521484 559.78857422 C1048.13553953 555.6636906 1037.13634852 551.68331478 1026.0625 547.875 C1019.26665712 545.53733641 1012.60448367 543.07903085 1006.01171875 540.2109375 C1001.29789717 538.31562662 996.46322701 536.80159079 991.63378906 535.22998047 C986.3177717 533.48373709 981.19193621 531.47010922 976.05078125 529.2578125 C972.61519306 527.8413472 969.1340811 526.59353712 965.625 525.375 C957.65611622 522.60533822 949.73099787 519.72283874 941.8125 516.8125 C940.51465002 516.33585182 939.21679844 515.85920798 937.91894531 515.38256836 C932.66548149 513.45257757 927.4129384 511.52008617 922.16064453 509.58691406 C907.32584405 504.12728716 892.47364805 498.72495469 877.58056641 493.42651367 C867.80582312 489.94395438 858.08913141 486.33130519 848.3984375 482.62109375 C838.83288772 478.97892303 829.18375963 475.61176996 819.48681641 472.3347168 C813.1055958 470.15701416 806.88215355 467.75256703 800.67578125 465.1184082 C797.35973036 463.73238365 794.02579613 462.53862781 790.625 461.375 C782.65435762 458.61058841 774.73078868 455.72306188 766.8125 452.8125 C766.17233948 452.57730652 765.53217896 452.34211304 764.87261963 452.09979248 C761.56802122 450.88563764 758.26367241 449.67080568 754.95947266 448.45556641 C747.39440771 445.67375726 739.8256259 442.9020723 732.25756836 440.12841797 C726.61199806 438.0589759 720.96679991 435.98857607 715.32388306 433.91191101 C701.10119012 428.67793526 686.8590351 423.50629675 672.58056641 418.42651367 C664.01725505 415.37556505 655.49659074 412.23188953 647 409 C636.50457411 405.02053132 625.96610944 401.17490432 615.40136719 397.38305664 C609.1959743 395.1545363 602.99717169 392.91040046 596.8125 390.625 C596.06822754 390.35002686 595.32395508 390.07505371 594.55712891 389.79174805 C592.94627477 389.1964905 591.33543564 388.60119233 589.72460938 388.00585938 C584.17277121 385.95625604 578.61801499 383.91461341 573.0625 381.875 C572.43902679 381.64610077 571.81555359 381.41720154 571.17318726 381.18136597 C558.6944327 376.6023082 546.1929647 372.08667005 533.68383789 367.59130859 C525.92040927 364.79813529 518.17892627 361.95498768 510.45849609 359.04499817 C505.04712631 357.00837285 499.6067997 355.07443887 494.140625 353.19140625 C490.58518775 351.95322869 487.07990303 350.64095799 483.59375 349.21875 C475.93965135 346.12696823 468.14491474 343.40877898 460.375 340.625 C450.76917897 337.18015384 441.17585723 333.71158635 431.6269989 330.11146545 C425.66864327 327.8673523 419.68299331 325.70497469 413.6875 323.5625 C401.78983274 319.29410496 389.8988307 315.00415353 378.08203125 310.515625 C370.18221664 307.5181384 362.24075691 304.68470264 354.25 301.9375 C347.3941477 299.58005872 340.67062076 297.10704519 334.01953125 294.21484375 C329.25340055 292.29729311 324.36843591 290.7518236 319.48657227 289.1574707 C314.87070548 287.6438403 310.36834637 285.99657627 305.8828125 284.12890625 C301.63111688 282.46394685 297.31441803 280.99346745 293 279.5 C287.16817033 277.4785035 281.38567438 275.41738429 275.67578125 273.0703125 C263.86006409 268.34402564 251.79844352 264.20508937 239.8125 259.9375 C229.14937612 256.14089992 218.52975171 252.2582592 207.95605469 248.21923828 C206.53861038 247.67831124 205.12063733 247.13876776 203.70214844 246.60058594 C201.77167751 245.86815057 199.8428024 245.13151292 197.9140625 244.39453125 C193.33233413 242.76211905 188.65872019 241.39761606 184 240 Z " fill="#000000" transform="translate(107,0)"/>
</svg>
