<?xml version="1.0" standalone="no"?>
<!DOCTYPE svg PUBLIC "-//W3C//DTD SVG 20010904//EN"
 "http://www.w3.org/TR/2001/REC-SVG-20010904/DTD/svg10.dtd">
<svg version="1.0" xmlns="http://www.w3.org/2000/svg"
 width="2299.000000pt" height="3006.000000pt" viewBox="0 0 2299.000000 3006.000000"
 preserveAspectRatio="xMidYMid meet">

<g transform="translate(0.000000,3006.000000) scale(0.100000,-0.100000)"
fill="#000000" stroke="none">
<path d="M5363 29878 l-262 -183 -1 -5317 0 -5318 855 0 855 0 2 1517 3 1518
3990 1952 c2195 1073 3994 1953 3998 1955 7 3 -20 718 -26 724 -2 1 -8854
3226 -9142 3331 -6 2 -128 -79 -272 -179z m3847 -2848 c1301 -475 2368 -866
2372 -869 6 -5 -4683 -2279 -4754 -2306 -17 -7 -18 94 -18 2020 0 1926 1 2027
18 2023 9 -3 1081 -393 2382 -868z"/>
<path d="M15990 24415 l0 -5355 860 0 860 0 0 5355 0 5355 -860 0 -860 0 0
-5355z"/>
<path d="M8080 16195 l0 -5355 861 0 861 0 3834 1996 c2108 1098 3841 2002
3850 2008 14 11 -28 97 -377 769 -290 558 -398 756 -409 753 -8 -2 -1563 -810
-3455 -1795 l-3440 -1790 -3 4384 -2 4385 -860 0 -860 0 0 -5355z"/>
<path d="M13533 11358 l-262 -183 2 -5325 2 -5325 857 -3 858 -2 2 1527 3
1527 606 296 c333 162 743 362 911 444 l305 148 2351 -2125 2350 -2126 304 51
304 51 288 524 c159 289 284 528 279 532 -48 32 -4282 3876 -4276 3881 4 4
1032 507 2283 1119 1251 611 2278 1115 2282 1119 11 11 -27 711 -38 721 -9 7
-9090 3317 -9130 3327 -13 3 -98 -50 -281 -178z m3856 -2843 c1309 -478 2381
-872 2381 -875 0 -4 -4723 -2290 -4765 -2306 -13 -5 -15 231 -15 2026 0 1137
4 2030 9 2028 4 -1 1080 -394 2390 -873z"/>
<path d="M2950 5953 c-1620 -2973 -2946 -5409 -2947 -5412 -1 -3 116 -127 260
-274 l262 -268 4034 2082 c3135 1618 4035 2078 4042 2068 4 -8 448 -827 985
-1822 l976 -1807 633 0 633 0 172 291 173 291 -20 41 c-12 23 -1268 2330
-2791 5127 l-2770 5085 -349 2 -348 3 -2945 -5407z m4110 1049 c430 -797 769
-1437 764 -1441 -15 -13 -4415 -2313 -4418 -2309 -2 1 626 1169 1396 2593 769
1425 1408 2607 1419 2629 l21 39 22 -39 c13 -22 371 -684 796 -1472z"/>
</g>
</svg>
