<?xml version="1.0" standalone="no"?>
<!DOCTYPE svg PUBLIC "-//W3C//DTD SVG 20010904//EN"
 "http://www.w3.org/TR/2001/REC-SVG-20010904/DTD/svg10.dtd">
<svg version="1.0" xmlns="http://www.w3.org/2000/svg"
 width="3339.000000pt" height="876.000000pt" viewBox="0 0 3339.000000 876.000000"
 preserveAspectRatio="xMidYMid meet">

<g transform="translate(0.000000,876.000000) scale(0.100000,-0.100000)"
fill="#000000" stroke="none">
<path d="M26218 8622 l-197 -137 -1 -4042 0 -4043 650 0 650 0 2 1157 3 1157
690 337 690 336 35 -32 c25 -23 3282 -2966 3516 -3176 20 -18 25 -18 248 20
125 22 229 41 231 43 2 2 101 181 220 398 l217 394 -35 31 c-106 90 -3217
2910 -3217 2915 0 3 781 388 1735 855 1489 728 1735 851 1735 869 -1 95 -31
521 -37 526 -6 5 -6814 2488 -6928 2527 -5 1 -99 -59 -207 -135z m2930 -2163
c983 -358 1790 -655 1794 -658 6 -5 -3575 -1742 -3608 -1749 -12 -3 -14 218
-14 1533 0 1536 0 1537 20 1532 11 -3 825 -299 1808 -658z"/>
<path d="M197 8603 l-197 -138 0 -4032 0 -4033 650 0 650 0 2 1150 3 1150
3025 1480 c1664 814 3028 1481 3032 1482 8 3 -13 533 -21 547 -6 8 -6923 2531
-6939 2531 -4 0 -96 -62 -205 -137z m3410 -2338 c722 -264 1309 -483 1305
-487 -7 -7 -3507 -1703 -3579 -1734 l-33 -14 0 1539 0 1539 498 -182 c273
-100 1088 -397 1809 -661z"/>
<path d="M18653 4523 c-1227 -2254 -2233 -4103 -2235 -4109 -2 -6 85 -102 194
-213 l196 -202 3054 1576 c1679 867 3057 1577 3062 1578 5 1 344 -618 754
-1375 l745 -1378 483 0 483 0 130 219 130 219 -2117 3888 -2118 3889 -265 3
-264 2 -2232 -4097z m3101 816 c346 -641 595 -1114 590 -1119 -15 -15 -3337
-1750 -3341 -1746 -3 2 472 888 1055 1968 583 1079 1065 1973 1071 1986 6 12
15 22 19 22 4 0 277 -500 606 -1111z"/>
<path d="M10110 4465 l0 -4065 653 0 654 0 2919 1520 c1759 917 2918 1525
2916 1533 -2 7 -136 267 -299 579 l-295 568 -171 -89 c-95 -50 -1274 -664
-2622 -1365 l-2450 -1275 -3 3329 -2 3330 -650 0 -650 0 0 -4065z"/>
<path d="M7990 4460 l0 -4060 655 0 655 0 0 4060 0 4060 -655 0 -655 0 0
-4060z"/>
</g>
</svg>
